<svg xmlns="http://www.w3.org/2000/svg" width="267" height="267" viewBox="0 0 267 267" class="undefined">
<style>
  .a{
    fill:#e20019;
  }
  .b{
    fill:#fff;
    font-variation-settings:normal;
    stop-color:#000;
    vector-effect:none;
  }
</style>
    <ellipse cx="132" cy="132" rx="132" ry="132" class="a"/>
    <path d="m53 71h22v46c0 0 13-17 31-12 21 5 21 22 21 38v45h-21c0 0 0-31 0-46 0-14-6-26-21-20-5 2-10 8-10 26 0 13 0 24 0 40-13 0-22 0-22 0z" class="b"/>
    <path d="m137 71h22v46c0 0 13-17 31-12 21 5 21 22 21 38v45h-21c0 0 0-31 0-46 0-14-6-26-21-20-5 2-10 8-10 26 0 13 0 24 0 40-13 0-22 0-22 0z" class="b"/>
</svg>
