<svg xmlns="http://www.w3.org/2000/svg" viewBox="0 0 512 512" class="undefined">
<style>
  .a{
    fill:#C30B15;
  }
  .b{
    fill:#85080E;
  }
  .c{
    fill:#FFF;
  }
  .d{
    fill:#E8E6E6;
  }
  .e{
    fill:#FC0F1A;
  }
</style>
  <path d="M511.3 274.3C511.8 268.2 512 262.1 512 256 512 114.6 397.4 0 256 0S0 114.6 0 256c0 117.8 79.5 216.9 187.8 246.8L511.3 274.3z" class="a"/>
  <path d="M511.3 274.3L315 77.9 119.1 434.1l68.7 68.7C209.5 508.8 232.4 512 256 512 391.2 512 502 407.1 511.3 274.3z" class="b"/>
  <polygon points="278.3 333.9 255.7 77.9 119.1 77.9 119.1 311.7 " class="c"/>
  <polygon points="392.9 311.7 392.9 155.8 337.3 133.6 315 77.9 255.7 77.9 256.1 333.9 " class="d"/>
  <polygon points="315 155.8 315 77.9 392.9 155.8 " class="c"/>
  <rect x="119.1" y="311.7" width="273.8" height="122.4" class="e"/>
    <path d="M204.9 346.4c13.5 0 21.3 6.7 21.3 18.5 0 12.4-7.8 19.6-21.3 19.6h-9.6v14.9h-13.5v-53L204.9 346.4 204.9 346.4zM195.3 373.9h8.9c5.9 0 9.3-3 9.3-8.6 0-5.5-3.4-8.3-9.3-8.3h-8.9V373.9z" class="c"/>
    <path d="M257.9 346.4c16.6 0 28.2 10.7 28.2 26.5 0 15.7-11.7 26.5-28.7 26.5h-22.2v-53H257.9zM248.6 388.6h9.6c8.2 0 14.2-6.4 14.2-15.7 0-9.4-6.2-15.8-14.8-15.8h-9V388.6z" class="c"/>
    <path d="M308.6 357v12.3h23.8v10.6h-23.8v19.5h-13.5v-53h39.3v10.6h-25.8V357z" class="c"/>
</svg>
